<?xml version="1.0"?>
<svg width="315.908" height="320" xmlns="http://www.w3.org/2000/svg" xmlns:svg="http://www.w3.org/2000/svg">
 <g>
  <title>Layer 1</title>
  <g id="Layer_25">
   <g id="svg_1">
    <circle id="svg_2" fill="#5097bc" r="155" cy="159.871" cx="155"/>
    <polygon id="svg_3" fill="#FFFFFF" points="154.363,288 74.5,288 106.5,95 202.5,95 234.167,288   "/>
    <circle id="svg_4" fill="none" stroke="#30241C" stroke-width="4" stroke-linecap="round" stroke-linejoin="round" stroke-miterlimit="10" stroke-dasharray="1,16" r="101.952" cy="159.871" cx="155"/>
    <rect id="svg_5" fill="#D3DBDD" height="32" width="192" y="288" x="58.5"/>
    <polygon id="svg_6" fill="#D3DBDD" points="193.832,0 193.832,27 170.5,27 170.5,0 138.5,0 138.5,27 115.167,27 115.167,0 90.5,0     106.5,63 202.5,63 218.5,0   "/>
    <circle id="svg_7" fill="#D3DBDD" r="50.5" cy="160" cx="154.5"/>
    <circle id="svg_8" fill="#FFFFFF" r="44.5" cy="160" cx="154.5"/>
    <rect id="svg_9" fill="#BAC4C6" height="32.001" width="110" y="63" x="98.834"/>
    <circle id="svg_10" fill="#ED4F3E" r="19.095" cy="160" cx="154.5"/>
    <path id="svg_11" fill="none" stroke="#30241C" stroke-width="4" stroke-linejoin="round" stroke-miterlimit="10" d="m187.75,160c0,18.363 -14.887,33.25 -33.25,33.25"/>
    <path id="svg_12" fill="none" stroke="#30241C" stroke-width="4" stroke-linejoin="round" stroke-miterlimit="10" d="m121.25,160c0,-18.363 14.887,-33.25 33.25,-33.25"/>
    <g id="svg_13">
     <line id="svg_14" fill="none" stroke="#30241C" stroke-width="4" stroke-miterlimit="10" y2="310" x2="74.5" y1="320" x1="74.5"/>
     <line id="svg_15" fill="none" stroke="#30241C" stroke-width="4" stroke-miterlimit="10" y2="310" x2="90.5" y1="320" x1="90.5"/>
     <line id="svg_16" fill="none" stroke="#30241C" stroke-width="4" stroke-miterlimit="10" y2="310" x2="106.5" y1="320" x1="106.5"/>
     <line id="svg_17" fill="none" stroke="#30241C" stroke-width="4" stroke-miterlimit="10" y2="310" x2="122.5" y1="320" x1="122.5"/>
     <line id="svg_18" fill="none" stroke="#30241C" stroke-width="4" stroke-miterlimit="10" y2="310" x2="138.5" y1="320" x1="138.5"/>
     <line id="svg_19" fill="none" stroke="#30241C" stroke-width="4" stroke-miterlimit="10" y2="310" x2="154.5" y1="320" x1="154.5"/>
     <line id="svg_20" fill="none" stroke="#30241C" stroke-width="4" stroke-miterlimit="10" y2="310" x2="170.5" y1="320" x1="170.5"/>
     <line id="svg_21" fill="none" stroke="#30241C" stroke-width="4" stroke-miterlimit="10" y2="310" x2="186.5" y1="320" x1="186.5"/>
     <line id="svg_22" fill="none" stroke="#30241C" stroke-width="4" stroke-miterlimit="10" y2="310" x2="202.5" y1="320" x1="202.5"/>
     <line id="svg_23" fill="none" stroke="#30241C" stroke-width="4" stroke-miterlimit="10" y2="310" x2="218.5" y1="320" x1="218.5"/>
     <line id="svg_24" fill="none" stroke="#30241C" stroke-width="4" stroke-miterlimit="10" y2="310" x2="234.5" y1="320" x1="234.5"/>
    </g>
    <g id="svg_25">
     <line id="svg_26" fill="none" stroke="#30241C" stroke-width="4" stroke-miterlimit="10" y2="85" x2="106.5" y1="95" x1="106.5"/>
     <line id="svg_27" fill="none" stroke="#30241C" stroke-width="4" stroke-miterlimit="10" y2="85" x2="122.5" y1="95" x1="122.5"/>
     <line id="svg_28" fill="none" stroke="#30241C" stroke-width="4" stroke-miterlimit="10" y2="85" x2="138.5" y1="95" x1="138.5"/>
     <line id="svg_29" fill="none" stroke="#30241C" stroke-width="4" stroke-miterlimit="10" y2="85" x2="154.5" y1="95" x1="154.5"/>
     <line id="svg_30" fill="none" stroke="#30241C" stroke-width="4" stroke-miterlimit="10" y2="85" x2="170.5" y1="95" x1="170.5"/>
     <line id="svg_31" fill="none" stroke="#30241C" stroke-width="4" stroke-miterlimit="10" y2="85" x2="186.5" y1="95" x1="186.5"/>
     <line id="svg_32" fill="none" stroke="#30241C" stroke-width="4" stroke-miterlimit="10" y2="85" x2="202.5" y1="95" x1="202.5"/>
    </g>
    <line id="svg_33" fill="none" stroke="#30241C" stroke-width="4" stroke-miterlimit="10" y2="160" x2="314.5" y1="160" x1="155"/>
    <line id="svg_34" fill="none" stroke="#30241C" stroke-width="4" stroke-miterlimit="10" y2="159.871" x2="298.5" y1="144" x1="314.5"/>
    <line id="svg_35" fill="none" stroke="#30241C" stroke-width="4" stroke-miterlimit="10" y2="159.871" x2="282.5" y1="144" x1="298.5"/>
    <line id="svg_36" fill="none" stroke="#30241C" stroke-width="4" stroke-miterlimit="10" y2="159.871" x2="266.5" y1="144" x1="282.5"/>
    <line id="svg_37" fill="none" stroke="#30241C" stroke-width="4" stroke-miterlimit="10" y2="159.871" x2="290.5" y1="144" x1="306.5"/>
    <line id="svg_38" fill="none" stroke="#30241C" stroke-width="4" stroke-miterlimit="10" y2="159.871" x2="274.5" y1="144" x1="290.5"/>
    <line id="svg_39" fill="none" stroke="#30241C" stroke-width="4" stroke-miterlimit="10" y2="175.742" x2="282.5" y1="159.871" x1="266.5"/>
    <line id="svg_40" fill="none" stroke="#30241C" stroke-width="4" stroke-miterlimit="10" y2="175.742" x2="298.5" y1="159.871" x1="282.5"/>
    <line id="svg_41" fill="none" stroke="#30241C" stroke-width="4" stroke-miterlimit="10" y2="175.742" x2="314.5" y1="159.871" x1="298.5"/>
    <line id="svg_42" fill="none" stroke="#30241C" stroke-width="4" stroke-miterlimit="10" y2="175.742" x2="290.5" y1="159.871" x1="274.5"/>
    <line id="svg_43" fill="none" stroke="#30241C" stroke-width="4" stroke-miterlimit="10" y2="175.742" x2="306.5" y1="159.871" x1="290.5"/>
   </g>
  </g>
  <g id="Layer_1"/>
 </g>
</svg>