<?xml version="1.0"?>
<svg width="320.169" height="319.166" xmlns="http://www.w3.org/2000/svg" xmlns:svg="http://www.w3.org/2000/svg">
 <g>
  <title>Layer 1</title>
  <g id="Layer_95">
   <g id="svg_1">
    <circle cx="160.001" cy="159.583" r="159.583" fill="#5097bc" id="svg_2"/>
    <ellipse cx="169.75" cy="276.082" rx="76.75" ry="6.5" fill="#ffffff" id="svg_3"/>
    <path d="m0,172.582c0,0 7.5,28.5 22,42.5c0,0 36.5,11.5 67,13.5c0,0 18,30 29.5,46l25.5,0l0,-46c0,0 26.5,3.5 59.5,1.5l-6.5,44.5l30,0c0,0 27,-29.5 50,-61.5s38.41,-51.809 21,-108c-22.57,-72.845 -153,-79.5 -222.5,-13c0,0 -10,-15.5 -37,-25l7.5,48c0,0.001 -14,38.501 -46,57.5z" fill="#FFFFFF" id="svg_4"/>
    <path d="m298,105.083c-5.82,-18.787 -18.828,-33.159 -36.102,-43.021c10.686,21.352 21.656,57.221 -4.455,85.875c-36.26,39.792 -189.406,75.08 -251.545,41.439c3.682,8.709 9.064,18.914 16.102,25.707c0,0 36.5,11.5 67,13.5c0,0 18,30 29.5,46l25.5,0l0,-46c0,0 26.5,3.5 59.5,1.5l-6.5,44.5l30,0c0,0 27,-29.5 50,-61.5s38.41,-51.81 21,-108z" fill="#D3DBDD" id="svg_5"/>
    <path d="m46,115.083" stroke-miterlimit="10" stroke-width="4" stroke="#30241C" fill="none" id="svg_6"/>
    <circle cx="68.75" cy="151.083" r="4.75" stroke-miterlimit="10" stroke-width="4" stroke="#30241C" fill="none" id="svg_7"/>
    <path d="m296.002,99.148c6.492,0.896 11.098,-5.003 11.5,-10.93c0.367,-5.398 -0.699,-11.503 -3.33,-16.272c-1.898,-3.436 -6.418,-9.551 -10.963,-8.818c-9.414,1.517 -3.258,11.653 0.941,15.453c4.471,4.047 10.666,5.347 16.188,2.69c6.439,-3.097 11.758,-14.452 3.918,-19.21" stroke-miterlimit="10" stroke-width="4" stroke="#30241C" fill="none" id="svg_8"/>
    <g id="svg_9">
     <path d="m162.186,154.398c0,7.079 5.736,12.815 12.814,12.815s12.816,-5.736 12.816,-12.815c0,-7.077 -5.738,-12.815 -12.816,-12.815c-7.076,0 -12.814,-5.738 -12.814,-12.815c0,-7.078 5.738,-12.815 12.814,-12.815c7.078,0 12.816,5.737 12.816,12.815" stroke-miterlimit="10" stroke-width="4" stroke="#30241C" fill="none" id="svg_10"/>
     <line x1="175" y1="176.826" x2="175" y2="106.339" stroke-miterlimit="10" stroke-width="4" stroke="#30241C" fill="none" id="svg_11"/>
    </g>
    <g id="svg_12">
     <circle cx="175" cy="141.583" r="61" stroke-dasharray="1.0085,18.1525" stroke-miterlimit="10" stroke-linecap="round" stroke-width="4" stroke="#30241C" fill="none" id="svg_13"/>
    </g>
   </g>
  </g>
  <g id="Layer_1"/>
 </g>
</svg>