<?xml version="1.0"?>
<svg width="253" height="320" xmlns="http://www.w3.org/2000/svg" xmlns:svg="http://www.w3.org/2000/svg">
 <g>
  <title>Layer 1</title>
  <g id="Layer_269">
   <g id="svg_1">
    <path d="m142.362,178.5c0,0 -6,-8.5 -6,-18.5s6,-18.5 6,-18.5c63.79,-54.473 63.525,-125.5 63.525,-125.5l-79.387,-0.137l0,0l-0.068,0l-0.069,0l0,0l-79.387,0.137c0,0 -0.266,71.027 63.524,125.5c0,0 6,8.5 6,18.5s-6,18.5 -6,18.5c-63.79,54.473 -63.524,125.5 -63.524,125.5l79.387,0.137l0,0l0.069,0l0.068,0l0,0l79.387,-0.137c0,0 0.265,-71.027 -63.525,-125.5z" fill="#D3DBDD" id="svg_2"/>
    <g id="svg_3">
     <path d="m126.498,16.863l78.368,0.135c-0.127,4.066 -1.057,20.188 -7.797,41.096c-7.18,22.269 -22.61,54.683 -55.356,82.646l-0.096,0.081l-0.072,0.103c-0.252,0.357 -6.183,8.876 -6.183,19.077s5.931,18.719 6.183,19.077l0.072,0.102l0.096,0.082c32.746,27.963 48.177,60.377 55.356,82.646c6.74,20.908 7.67,37.03 7.797,41.096l-78.366,0.135l-0.068,0l-0.067,0l-78.369,-0.135c0.128,-4.065 1.057,-20.188 7.798,-41.096c7.179,-22.269 22.61,-54.683 55.356,-82.646l0.095,-0.082l0.072,-0.102c0.252,-0.358 6.183,-8.877 6.183,-19.077s-5.931,-18.719 -6.183,-19.077l-0.072,-0.103l-0.095,-0.081c-32.746,-27.963 -48.177,-60.377 -55.356,-82.646c-6.741,-20.908 -7.67,-37.03 -7.798,-41.096l78.367,-0.135l0.069,0l0.066,0m0.002,-1l-0.068,0l-0.069,0l-79.387,0.137c0,0 -0.266,71.027 63.524,125.5c0,0 6,8.5 6,18.5s-6,18.5 -6,18.5c-63.79,54.473 -63.524,125.5 -63.524,125.5l79.387,0.137l0.069,0l0.068,0l79.387,-0.137c0,0 0.266,-71.027 -63.524,-125.5c0,0 -6,-8.5 -6,-18.5s6,-18.5 6,-18.5c63.789,-54.473 63.524,-125.5 63.524,-125.5l-79.387,-0.137l0,0z" fill="#D3DBDD" id="svg_4"/>
    </g>
    <path d="m126.883,141c0,0 -15.221,-4.096 -32.254,-24.99c0,0 -9.59,-11.999 -13.115,-17.878c0,0 8.779,1.023 15.994,-3.017s22.943,-21.499 37.949,-18.18c15.006,3.318 19.334,12.408 24.961,13.129c5.628,0.723 13.405,0.18 17.668,-2.002c0,0.001 -18.797,37.354 -51.203,52.938z" fill="#5097bc" id="svg_5"/>
    <path d="m52.5,304c0,0 22,-10 31.5,-20s13,-13 18,-13s14,-12.5 16.5,-18.5s12,-12 27,7.5s55,44 55,44l-148,0z" fill="#5097bc" id="svg_6"/>
    <rect x="30.5" y="304" width="192" height="16" fill="#BAC4C6" id="svg_7"/>
    <rect x="30.5" width="192" height="16" fill="#BAC4C6" id="svg_8"/>
    <g id="svg_9">
     <circle cx="126.5" cy="159.088" r="123.5" stroke-dasharray="4.0312,18.1404" stroke-miterlimit="10" stroke-width="6" stroke="#30241C" fill="none" id="svg_10"/>
    </g>
    <polyline points="46.5,99.5 126.5,160.5 183.5,141   " stroke-miterlimit="10" stroke-width="4" stroke="#30241C" fill="none" id="svg_11"/>
    <line x1="139.01" y1="133.811" x2="91" y2="238.5" stroke-miterlimit="10" stroke-width="4" stroke="#30241C" fill="none" id="svg_12"/>
    <line x1="150.499" y1="108.759" x2="146.11" y2="118.33" stroke-miterlimit="10" stroke-width="4" stroke="#30241C" fill="none" id="svg_13"/>
    <circle cx="142.501" cy="126.201" r="8.667" stroke-miterlimit="10" stroke-width="4" stroke="#30241C" fill="none" id="svg_14"/>
    <circle cx="125.844" cy="160" r="6" fill="#ED4F3E" id="svg_15"/>
   </g>
  </g>
  <g id="Layer_1"/>
 </g>
</svg>